<mxfile host="app.diagrams.net" agent="Mozilla/5.0 (Windows NT 10.0; Win64; x64) AppleWebKit/537.36 (KHTML, like Gecko) Chrome/140.0.0.0 Safari/537.36" version="28.2.3">
  <diagram name="Page-1" id="DgkxwLN1SnRfu8ULbyQu">
    <mxGraphModel dx="1772" dy="1338" grid="1" gridSize="10" guides="1" tooltips="1" connect="1" arrows="1" fold="1" page="1" pageScale="1" pageWidth="850" pageHeight="1100" math="0" shadow="0">
      <root>
        <mxCell id="0" />
        <mxCell id="1" parent="0" />
        <mxCell id="HQgH6Z7FhCviYjo9hJg_-70" value="" style="endArrow=classic;html=1;rounded=0;" edge="1" parent="1">
          <mxGeometry width="50" height="50" relative="1" as="geometry">
            <mxPoint x="180" y="440" as="sourcePoint" />
            <mxPoint x="299.58000000000004" y="490" as="targetPoint" />
            <Array as="points">
              <mxPoint x="300" y="440" />
            </Array>
          </mxGeometry>
        </mxCell>
        <mxCell id="HQgH6Z7FhCviYjo9hJg_-71" value="LASTNAME" style="rounded=0;whiteSpace=wrap;html=1;" vertex="1" parent="1">
          <mxGeometry x="240" y="490" width="120" height="60" as="geometry" />
        </mxCell>
        <mxCell id="HQgH6Z7FhCviYjo9hJg_-72" value="&lt;font style=&quot;font-size: 14px;&quot;&gt;Table name: CustomUser&lt;/font&gt;" style="text;html=1;align=center;verticalAlign=middle;whiteSpace=wrap;rounded=0;" vertex="1" parent="1">
          <mxGeometry x="282.5" y="380" width="235" height="30" as="geometry" />
        </mxCell>
        <mxCell id="HQgH6Z7FhCviYjo9hJg_-73" value="&lt;font style=&quot;font-size: 30px;&quot;&gt;News App database tables: Normalised to 3NF&lt;/font&gt;" style="text;html=1;align=center;verticalAlign=middle;resizable=0;points=[];autosize=1;strokeColor=none;fillColor=none;" vertex="1" parent="1">
          <mxGeometry x="600" y="210" width="650" height="50" as="geometry" />
        </mxCell>
        <mxCell id="HQgH6Z7FhCviYjo9hJg_-75" value="&lt;font style=&quot;font-size: 14px;&quot;&gt;Table name: Article&amp;nbsp;&lt;/font&gt;" style="text;html=1;align=center;verticalAlign=middle;whiteSpace=wrap;rounded=0;" vertex="1" parent="1">
          <mxGeometry x="283.75" y="820" width="235" height="30" as="geometry" />
        </mxCell>
        <mxCell id="HQgH6Z7FhCviYjo9hJg_-76" value="" style="edgeStyle=orthogonalEdgeStyle;rounded=0;orthogonalLoop=1;jettySize=auto;html=1;" edge="1" parent="1" source="HQgH6Z7FhCviYjo9hJg_-77" target="HQgH6Z7FhCviYjo9hJg_-78">
          <mxGeometry relative="1" as="geometry">
            <Array as="points">
              <mxPoint x="60" y="440" />
              <mxPoint x="180" y="440" />
            </Array>
          </mxGeometry>
        </mxCell>
        <mxCell id="HQgH6Z7FhCviYjo9hJg_-77" value="&lt;font&gt;USER_ID&lt;/font&gt;" style="rounded=0;whiteSpace=wrap;html=1;" vertex="1" parent="1">
          <mxGeometry y="490" width="120" height="60" as="geometry" />
        </mxCell>
        <mxCell id="HQgH6Z7FhCviYjo9hJg_-78" value="FIRSTNAME" style="whiteSpace=wrap;html=1;rounded=0;" vertex="1" parent="1">
          <mxGeometry x="120" y="490" width="120" height="60" as="geometry" />
        </mxCell>
        <mxCell id="HQgH6Z7FhCviYjo9hJg_-82" value="" style="endArrow=classic;html=1;rounded=0;" edge="1" parent="1">
          <mxGeometry width="50" height="50" relative="1" as="geometry">
            <mxPoint x="117.5" y="880" as="sourcePoint" />
            <mxPoint x="237.08000000000004" y="930" as="targetPoint" />
            <Array as="points">
              <mxPoint x="237.5" y="880" />
            </Array>
          </mxGeometry>
        </mxCell>
        <mxCell id="HQgH6Z7FhCviYjo9hJg_-83" value="&lt;font&gt;CONTENT&lt;/font&gt;" style="rounded=0;whiteSpace=wrap;html=1;" vertex="1" parent="1">
          <mxGeometry x="177.5" y="930" width="120" height="60" as="geometry" />
        </mxCell>
        <mxCell id="HQgH6Z7FhCviYjo9hJg_-84" value="" style="edgeStyle=orthogonalEdgeStyle;rounded=0;orthogonalLoop=1;jettySize=auto;html=1;" edge="1" parent="1" source="HQgH6Z7FhCviYjo9hJg_-85" target="HQgH6Z7FhCviYjo9hJg_-86">
          <mxGeometry relative="1" as="geometry">
            <Array as="points">
              <mxPoint x="-2" y="880" />
              <mxPoint x="125" y="880" />
            </Array>
          </mxGeometry>
        </mxCell>
        <mxCell id="HQgH6Z7FhCviYjo9hJg_-85" value="&lt;font&gt;ID&lt;/font&gt;" style="rounded=0;whiteSpace=wrap;html=1;" vertex="1" parent="1">
          <mxGeometry x="-62.5" y="930" width="120" height="60" as="geometry" />
        </mxCell>
        <mxCell id="HQgH6Z7FhCviYjo9hJg_-86" value="TITLE" style="whiteSpace=wrap;html=1;rounded=0;" vertex="1" parent="1">
          <mxGeometry x="57.5" y="930" width="120" height="60" as="geometry" />
        </mxCell>
        <mxCell id="HQgH6Z7FhCviYjo9hJg_-87" value="&lt;font style=&quot;font-size: 10px;&quot;&gt;APPROVAL_STATUS&lt;/font&gt;" style="rounded=0;whiteSpace=wrap;html=1;" vertex="1" parent="1">
          <mxGeometry x="297.5" y="930" width="120" height="60" as="geometry" />
        </mxCell>
        <mxCell id="HQgH6Z7FhCviYjo9hJg_-88" value="" style="endArrow=classic;html=1;rounded=0;" edge="1" parent="1">
          <mxGeometry width="50" height="50" relative="1" as="geometry">
            <mxPoint x="235" y="880" as="sourcePoint" />
            <mxPoint x="354.58000000000004" y="930" as="targetPoint" />
            <Array as="points">
              <mxPoint x="355" y="880" />
            </Array>
          </mxGeometry>
        </mxCell>
        <mxCell id="HQgH6Z7FhCviYjo9hJg_-89" value="" style="endArrow=classic;html=1;rounded=0;" edge="1" parent="1">
          <mxGeometry width="50" height="50" relative="1" as="geometry">
            <mxPoint x="350" y="880" as="sourcePoint" />
            <mxPoint x="479.58000000000004" y="930" as="targetPoint" />
            <Array as="points">
              <mxPoint x="480" y="880" />
            </Array>
          </mxGeometry>
        </mxCell>
        <mxCell id="HQgH6Z7FhCviYjo9hJg_-90" value="DATE_CREATED" style="rounded=0;whiteSpace=wrap;html=1;" vertex="1" parent="1">
          <mxGeometry x="417.5" y="930" width="120" height="60" as="geometry" />
        </mxCell>
        <mxCell id="HQgH6Z7FhCviYjo9hJg_-91" value="&lt;font style=&quot;font-size: 11px;&quot;&gt;DATE_UPDATED&lt;/font&gt;" style="rounded=0;whiteSpace=wrap;html=1;" vertex="1" parent="1">
          <mxGeometry x="537.5" y="930" width="120" height="60" as="geometry" />
        </mxCell>
        <mxCell id="HQgH6Z7FhCviYjo9hJg_-92" value="" style="endArrow=classic;html=1;rounded=0;" edge="1" parent="1">
          <mxGeometry width="50" height="50" relative="1" as="geometry">
            <mxPoint x="477.5" y="880" as="sourcePoint" />
            <mxPoint x="597.0799999999999" y="930" as="targetPoint" />
            <Array as="points">
              <mxPoint x="597.5" y="880" />
            </Array>
          </mxGeometry>
        </mxCell>
        <mxCell id="HQgH6Z7FhCviYjo9hJg_-93" value="" style="endArrow=classic;html=1;rounded=0;" edge="1" parent="1">
          <mxGeometry width="50" height="50" relative="1" as="geometry">
            <mxPoint x="587.5" y="880" as="sourcePoint" />
            <mxPoint x="717.08" y="930" as="targetPoint" />
            <Array as="points">
              <mxPoint x="717.5" y="880" />
            </Array>
          </mxGeometry>
        </mxCell>
        <mxCell id="HQgH6Z7FhCviYjo9hJg_-94" value="JOURNALIST_ID" style="rounded=0;whiteSpace=wrap;html=1;" vertex="1" parent="1">
          <mxGeometry x="655" y="930" width="120" height="60" as="geometry" />
        </mxCell>
        <mxCell id="HQgH6Z7FhCviYjo9hJg_-95" value="&lt;font&gt;PUBLISHER_ID&lt;/font&gt;" style="rounded=0;whiteSpace=wrap;html=1;" vertex="1" parent="1">
          <mxGeometry x="775" y="930" width="120" height="60" as="geometry" />
        </mxCell>
        <mxCell id="HQgH6Z7FhCviYjo9hJg_-96" value="" style="endArrow=classic;html=1;rounded=0;" edge="1" parent="1">
          <mxGeometry width="50" height="50" relative="1" as="geometry">
            <mxPoint x="715" y="880" as="sourcePoint" />
            <mxPoint x="834.5799999999999" y="930" as="targetPoint" />
            <Array as="points">
              <mxPoint x="835" y="880" />
            </Array>
          </mxGeometry>
        </mxCell>
        <mxCell id="HQgH6Z7FhCviYjo9hJg_-97" value="" style="endArrow=classic;html=1;rounded=0;" edge="1" parent="1">
          <mxGeometry width="50" height="50" relative="1" as="geometry">
            <mxPoint x="540" y="440" as="sourcePoint" />
            <mxPoint x="659.58" y="490" as="targetPoint" />
            <Array as="points">
              <mxPoint x="660" y="440" />
            </Array>
          </mxGeometry>
        </mxCell>
        <mxCell id="HQgH6Z7FhCviYjo9hJg_-98" value="ADMIN_STATUS" style="rounded=0;whiteSpace=wrap;html=1;" vertex="1" parent="1">
          <mxGeometry x="600" y="490" width="120" height="60" as="geometry" />
        </mxCell>
        <mxCell id="HQgH6Z7FhCviYjo9hJg_-99" value="&lt;font&gt;USERNAME&lt;/font&gt;" style="rounded=0;whiteSpace=wrap;html=1;" vertex="1" parent="1">
          <mxGeometry x="360" y="490" width="120" height="60" as="geometry" />
        </mxCell>
        <mxCell id="HQgH6Z7FhCviYjo9hJg_-100" value="EMAIL" style="whiteSpace=wrap;html=1;rounded=0;" vertex="1" parent="1">
          <mxGeometry x="480" y="490" width="120" height="60" as="geometry" />
        </mxCell>
        <mxCell id="HQgH6Z7FhCviYjo9hJg_-101" value="" style="endArrow=classic;html=1;rounded=0;" edge="1" parent="1">
          <mxGeometry width="50" height="50" relative="1" as="geometry">
            <mxPoint x="420" y="440" as="sourcePoint" />
            <mxPoint x="539.58" y="490" as="targetPoint" />
            <Array as="points">
              <mxPoint x="540" y="440" />
            </Array>
          </mxGeometry>
        </mxCell>
        <mxCell id="HQgH6Z7FhCviYjo9hJg_-102" value="" style="endArrow=classic;html=1;rounded=0;" edge="1" parent="1">
          <mxGeometry width="50" height="50" relative="1" as="geometry">
            <mxPoint x="300" y="440" as="sourcePoint" />
            <mxPoint x="419.58000000000004" y="490" as="targetPoint" />
            <Array as="points">
              <mxPoint x="420" y="440" />
            </Array>
          </mxGeometry>
        </mxCell>
        <mxCell id="HQgH6Z7FhCviYjo9hJg_-103" value="ROLE_ID" style="whiteSpace=wrap;html=1;rounded=0;" vertex="1" parent="1">
          <mxGeometry x="720" y="490" width="120" height="60" as="geometry" />
        </mxCell>
        <mxCell id="HQgH6Z7FhCviYjo9hJg_-104" value="" style="endArrow=classic;html=1;rounded=0;" edge="1" parent="1">
          <mxGeometry width="50" height="50" relative="1" as="geometry">
            <mxPoint x="660" y="440" as="sourcePoint" />
            <mxPoint x="779.5799999999999" y="490" as="targetPoint" />
            <Array as="points">
              <mxPoint x="780" y="440" />
            </Array>
          </mxGeometry>
        </mxCell>
        <mxCell id="HQgH6Z7FhCviYjo9hJg_-109" value="" style="edgeStyle=orthogonalEdgeStyle;rounded=0;orthogonalLoop=1;jettySize=auto;html=1;" edge="1" parent="1" source="HQgH6Z7FhCviYjo9hJg_-110" target="HQgH6Z7FhCviYjo9hJg_-112">
          <mxGeometry relative="1" as="geometry">
            <Array as="points">
              <mxPoint x="1400.5" y="440" />
              <mxPoint x="1527.5" y="440" />
            </Array>
          </mxGeometry>
        </mxCell>
        <mxCell id="HQgH6Z7FhCviYjo9hJg_-110" value="&lt;font&gt;EDITOR_ID&lt;/font&gt;" style="rounded=0;whiteSpace=wrap;html=1;" vertex="1" parent="1">
          <mxGeometry x="1340" y="490" width="120" height="60" as="geometry" />
        </mxCell>
        <mxCell id="HQgH6Z7FhCviYjo9hJg_-111" value="&lt;font style=&quot;font-size: 14px;&quot;&gt;Table name: Editor&lt;/font&gt;" style="text;html=1;align=center;verticalAlign=middle;whiteSpace=wrap;rounded=0;" vertex="1" parent="1">
          <mxGeometry x="1402.5" y="375" width="235" height="30" as="geometry" />
        </mxCell>
        <mxCell id="HQgH6Z7FhCviYjo9hJg_-112" value="USER_ID" style="whiteSpace=wrap;html=1;rounded=0;" vertex="1" parent="1">
          <mxGeometry x="1460" y="490" width="120" height="60" as="geometry" />
        </mxCell>
        <mxCell id="HQgH6Z7FhCviYjo9hJg_-113" value="" style="endArrow=classic;html=1;rounded=0;" edge="1" parent="1">
          <mxGeometry width="50" height="50" relative="1" as="geometry">
            <mxPoint x="1520" y="440" as="sourcePoint" />
            <mxPoint x="1639.58" y="490" as="targetPoint" />
            <Array as="points">
              <mxPoint x="1640" y="440" />
            </Array>
          </mxGeometry>
        </mxCell>
        <mxCell id="HQgH6Z7FhCviYjo9hJg_-114" value="&lt;font&gt;PUBLISHER_ID&lt;/font&gt;" style="rounded=0;whiteSpace=wrap;html=1;" vertex="1" parent="1">
          <mxGeometry x="1580" y="490" width="120" height="60" as="geometry" />
        </mxCell>
        <mxCell id="HQgH6Z7FhCviYjo9hJg_-115" value="" style="edgeStyle=orthogonalEdgeStyle;rounded=0;orthogonalLoop=1;jettySize=auto;html=1;" edge="1" parent="1" source="HQgH6Z7FhCviYjo9hJg_-116" target="HQgH6Z7FhCviYjo9hJg_-118">
          <mxGeometry relative="1" as="geometry">
            <Array as="points">
              <mxPoint x="1000.5" y="440" />
              <mxPoint x="1127.5" y="440" />
            </Array>
          </mxGeometry>
        </mxCell>
        <mxCell id="HQgH6Z7FhCviYjo9hJg_-116" value="&lt;font&gt;JOURNALIST_ID&lt;/font&gt;" style="rounded=0;whiteSpace=wrap;html=1;" vertex="1" parent="1">
          <mxGeometry x="940" y="490" width="120" height="60" as="geometry" />
        </mxCell>
        <mxCell id="HQgH6Z7FhCviYjo9hJg_-117" value="&lt;font style=&quot;font-size: 14px;&quot;&gt;Table name: Journalist&lt;/font&gt;" style="text;html=1;align=center;verticalAlign=middle;whiteSpace=wrap;rounded=0;" vertex="1" parent="1">
          <mxGeometry x="1002.5" y="375" width="235" height="30" as="geometry" />
        </mxCell>
        <mxCell id="HQgH6Z7FhCviYjo9hJg_-118" value="USER_ID" style="whiteSpace=wrap;html=1;rounded=0;" vertex="1" parent="1">
          <mxGeometry x="1060" y="490" width="120" height="60" as="geometry" />
        </mxCell>
        <mxCell id="HQgH6Z7FhCviYjo9hJg_-119" value="" style="endArrow=classic;html=1;rounded=0;" edge="1" parent="1">
          <mxGeometry width="50" height="50" relative="1" as="geometry">
            <mxPoint x="1120" y="440" as="sourcePoint" />
            <mxPoint x="1239.58" y="490" as="targetPoint" />
            <Array as="points">
              <mxPoint x="1240" y="440" />
            </Array>
          </mxGeometry>
        </mxCell>
        <mxCell id="HQgH6Z7FhCviYjo9hJg_-120" value="&lt;font&gt;PUBLISHER_ID&lt;/font&gt;" style="rounded=0;whiteSpace=wrap;html=1;" vertex="1" parent="1">
          <mxGeometry x="1180" y="490" width="120" height="60" as="geometry" />
        </mxCell>
        <mxCell id="HQgH6Z7FhCviYjo9hJg_-121" value="" style="endArrow=classic;html=1;rounded=0;" edge="1" parent="1">
          <mxGeometry width="50" height="50" relative="1" as="geometry">
            <mxPoint x="670" y="685" as="sourcePoint" />
            <mxPoint x="789.5799999999999" y="735" as="targetPoint" />
            <Array as="points">
              <mxPoint x="790" y="685" />
            </Array>
          </mxGeometry>
        </mxCell>
        <mxCell id="HQgH6Z7FhCviYjo9hJg_-122" value="IS_ACTIVE" style="rounded=0;whiteSpace=wrap;html=1;" vertex="1" parent="1">
          <mxGeometry x="730" y="735" width="120" height="60" as="geometry" />
        </mxCell>
        <mxCell id="HQgH6Z7FhCviYjo9hJg_-123" value="&lt;font style=&quot;font-size: 14px;&quot;&gt;Table name: JournalistSubscription&lt;/font&gt;" style="text;html=1;align=center;verticalAlign=middle;whiteSpace=wrap;rounded=0;" vertex="1" parent="1">
          <mxGeometry x="672.5" y="625" width="235" height="30" as="geometry" />
        </mxCell>
        <mxCell id="HQgH6Z7FhCviYjo9hJg_-124" value="" style="edgeStyle=orthogonalEdgeStyle;rounded=0;orthogonalLoop=1;jettySize=auto;html=1;" edge="1" parent="1" source="HQgH6Z7FhCviYjo9hJg_-125" target="HQgH6Z7FhCviYjo9hJg_-126">
          <mxGeometry relative="1" as="geometry">
            <Array as="points">
              <mxPoint x="550" y="685" />
              <mxPoint x="670" y="685" />
            </Array>
          </mxGeometry>
        </mxCell>
        <mxCell id="HQgH6Z7FhCviYjo9hJg_-125" value="&lt;font style=&quot;font-size: 10px;&quot;&gt;JOURNALIST_SUB_ID&lt;/font&gt;" style="rounded=0;whiteSpace=wrap;html=1;" vertex="1" parent="1">
          <mxGeometry x="490" y="735" width="120" height="60" as="geometry" />
        </mxCell>
        <mxCell id="HQgH6Z7FhCviYjo9hJg_-126" value="&lt;font style=&quot;font-size: 11px;&quot;&gt;DATE_SUBSCRIBED&lt;/font&gt;" style="whiteSpace=wrap;html=1;rounded=0;" vertex="1" parent="1">
          <mxGeometry x="610" y="735" width="120" height="60" as="geometry" />
        </mxCell>
        <mxCell id="HQgH6Z7FhCviYjo9hJg_-127" value="&lt;font&gt;JOURNALIST_ID&lt;/font&gt;" style="rounded=0;whiteSpace=wrap;html=1;" vertex="1" parent="1">
          <mxGeometry x="850" y="735" width="120" height="60" as="geometry" />
        </mxCell>
        <mxCell id="HQgH6Z7FhCviYjo9hJg_-128" value="" style="endArrow=classic;html=1;rounded=0;" edge="1" parent="1">
          <mxGeometry width="50" height="50" relative="1" as="geometry">
            <mxPoint x="790" y="685" as="sourcePoint" />
            <mxPoint x="909.5799999999999" y="735" as="targetPoint" />
            <Array as="points">
              <mxPoint x="910" y="685" />
            </Array>
          </mxGeometry>
        </mxCell>
        <mxCell id="HQgH6Z7FhCviYjo9hJg_-129" value="" style="endArrow=classic;html=1;rounded=0;" edge="1" parent="1">
          <mxGeometry width="50" height="50" relative="1" as="geometry">
            <mxPoint x="1340" y="685" as="sourcePoint" />
            <mxPoint x="1459.58" y="735" as="targetPoint" />
            <Array as="points">
              <mxPoint x="1460" y="685" />
            </Array>
          </mxGeometry>
        </mxCell>
        <mxCell id="HQgH6Z7FhCviYjo9hJg_-130" value="IS_ACTIVE" style="rounded=0;whiteSpace=wrap;html=1;" vertex="1" parent="1">
          <mxGeometry x="1400" y="735" width="120" height="60" as="geometry" />
        </mxCell>
        <mxCell id="HQgH6Z7FhCviYjo9hJg_-131" value="&lt;font style=&quot;font-size: 14px;&quot;&gt;Table name: PublisherSubscription&lt;/font&gt;" style="text;html=1;align=center;verticalAlign=middle;whiteSpace=wrap;rounded=0;" vertex="1" parent="1">
          <mxGeometry x="1340" y="625" width="235" height="30" as="geometry" />
        </mxCell>
        <mxCell id="HQgH6Z7FhCviYjo9hJg_-132" value="" style="edgeStyle=orthogonalEdgeStyle;rounded=0;orthogonalLoop=1;jettySize=auto;html=1;" edge="1" parent="1" source="HQgH6Z7FhCviYjo9hJg_-133" target="HQgH6Z7FhCviYjo9hJg_-134">
          <mxGeometry relative="1" as="geometry">
            <Array as="points">
              <mxPoint x="1220" y="685" />
              <mxPoint x="1340" y="685" />
            </Array>
          </mxGeometry>
        </mxCell>
        <mxCell id="HQgH6Z7FhCviYjo9hJg_-133" value="&lt;font style=&quot;font-size: 10px;&quot;&gt;PUBLISHER_SUB_ID&lt;/font&gt;" style="rounded=0;whiteSpace=wrap;html=1;" vertex="1" parent="1">
          <mxGeometry x="1160" y="735" width="120" height="60" as="geometry" />
        </mxCell>
        <mxCell id="HQgH6Z7FhCviYjo9hJg_-134" value="&lt;font style=&quot;font-size: 11px;&quot;&gt;DATE_SUBSCRIBED&lt;/font&gt;" style="whiteSpace=wrap;html=1;rounded=0;" vertex="1" parent="1">
          <mxGeometry x="1280" y="735" width="120" height="60" as="geometry" />
        </mxCell>
        <mxCell id="HQgH6Z7FhCviYjo9hJg_-135" value="&lt;font&gt;PUBLISHER_ID&lt;/font&gt;" style="rounded=0;whiteSpace=wrap;html=1;" vertex="1" parent="1">
          <mxGeometry x="1520" y="735" width="120" height="60" as="geometry" />
        </mxCell>
        <mxCell id="HQgH6Z7FhCviYjo9hJg_-136" value="" style="endArrow=classic;html=1;rounded=0;" edge="1" parent="1">
          <mxGeometry width="50" height="50" relative="1" as="geometry">
            <mxPoint x="1460" y="685" as="sourcePoint" />
            <mxPoint x="1579.58" y="735" as="targetPoint" />
            <Array as="points">
              <mxPoint x="1580" y="685" />
            </Array>
          </mxGeometry>
        </mxCell>
        <mxCell id="HQgH6Z7FhCviYjo9hJg_-137" value="READER_ID" style="rounded=0;whiteSpace=wrap;html=1;" vertex="1" parent="1">
          <mxGeometry x="964" y="735" width="120" height="60" as="geometry" />
        </mxCell>
        <mxCell id="HQgH6Z7FhCviYjo9hJg_-138" value="" style="endArrow=classic;html=1;rounded=0;" edge="1" parent="1">
          <mxGeometry width="50" height="50" relative="1" as="geometry">
            <mxPoint x="906.5" y="685" as="sourcePoint" />
            <mxPoint x="1026.08" y="735" as="targetPoint" />
            <Array as="points">
              <mxPoint x="1026.5" y="685" />
            </Array>
          </mxGeometry>
        </mxCell>
        <mxCell id="HQgH6Z7FhCviYjo9hJg_-139" value="READER_ID" style="rounded=0;whiteSpace=wrap;html=1;" vertex="1" parent="1">
          <mxGeometry x="1637.5" y="735" width="120" height="60" as="geometry" />
        </mxCell>
        <mxCell id="HQgH6Z7FhCviYjo9hJg_-140" value="" style="endArrow=classic;html=1;rounded=0;" edge="1" parent="1">
          <mxGeometry width="50" height="50" relative="1" as="geometry">
            <mxPoint x="1580" y="685" as="sourcePoint" />
            <mxPoint x="1699.58" y="735" as="targetPoint" />
            <Array as="points">
              <mxPoint x="1700" y="685" />
            </Array>
          </mxGeometry>
        </mxCell>
        <mxCell id="HQgH6Z7FhCviYjo9hJg_-141" value="&lt;font style=&quot;font-size: 14px;&quot;&gt;Table name: Newsletter&amp;nbsp;&lt;/font&gt;" style="text;html=1;align=center;verticalAlign=middle;whiteSpace=wrap;rounded=0;" vertex="1" parent="1">
          <mxGeometry x="283.75" y="1040" width="235" height="30" as="geometry" />
        </mxCell>
        <mxCell id="HQgH6Z7FhCviYjo9hJg_-142" value="" style="endArrow=classic;html=1;rounded=0;" edge="1" parent="1">
          <mxGeometry width="50" height="50" relative="1" as="geometry">
            <mxPoint x="168.75" y="1100" as="sourcePoint" />
            <mxPoint x="288.33000000000004" y="1150" as="targetPoint" />
            <Array as="points">
              <mxPoint x="288.75" y="1100" />
            </Array>
          </mxGeometry>
        </mxCell>
        <mxCell id="HQgH6Z7FhCviYjo9hJg_-143" value="&lt;font&gt;CONTENT&lt;/font&gt;" style="rounded=0;whiteSpace=wrap;html=1;" vertex="1" parent="1">
          <mxGeometry x="228.75" y="1150" width="120" height="60" as="geometry" />
        </mxCell>
        <mxCell id="HQgH6Z7FhCviYjo9hJg_-144" value="" style="edgeStyle=orthogonalEdgeStyle;rounded=0;orthogonalLoop=1;jettySize=auto;html=1;" edge="1" parent="1" source="HQgH6Z7FhCviYjo9hJg_-145" target="HQgH6Z7FhCviYjo9hJg_-146">
          <mxGeometry relative="1" as="geometry">
            <Array as="points">
              <mxPoint x="49.25" y="1100" />
              <mxPoint x="176.25" y="1100" />
            </Array>
          </mxGeometry>
        </mxCell>
        <mxCell id="HQgH6Z7FhCviYjo9hJg_-145" value="&lt;font&gt;ID&lt;/font&gt;" style="rounded=0;whiteSpace=wrap;html=1;" vertex="1" parent="1">
          <mxGeometry x="-11.25" y="1150" width="120" height="60" as="geometry" />
        </mxCell>
        <mxCell id="HQgH6Z7FhCviYjo9hJg_-146" value="TITLE" style="whiteSpace=wrap;html=1;rounded=0;" vertex="1" parent="1">
          <mxGeometry x="108.75" y="1150" width="120" height="60" as="geometry" />
        </mxCell>
        <mxCell id="HQgH6Z7FhCviYjo9hJg_-147" value="&lt;font&gt;DATE_CREATED&lt;/font&gt;" style="rounded=0;whiteSpace=wrap;html=1;" vertex="1" parent="1">
          <mxGeometry x="348.75" y="1150" width="120" height="60" as="geometry" />
        </mxCell>
        <mxCell id="HQgH6Z7FhCviYjo9hJg_-148" value="" style="endArrow=classic;html=1;rounded=0;" edge="1" parent="1">
          <mxGeometry width="50" height="50" relative="1" as="geometry">
            <mxPoint x="286.25" y="1100" as="sourcePoint" />
            <mxPoint x="405.83000000000004" y="1150" as="targetPoint" />
            <Array as="points">
              <mxPoint x="406.25" y="1100" />
            </Array>
          </mxGeometry>
        </mxCell>
        <mxCell id="HQgH6Z7FhCviYjo9hJg_-149" value="" style="endArrow=classic;html=1;rounded=0;" edge="1" parent="1">
          <mxGeometry width="50" height="50" relative="1" as="geometry">
            <mxPoint x="401.25" y="1100" as="sourcePoint" />
            <mxPoint x="530.83" y="1150" as="targetPoint" />
            <Array as="points">
              <mxPoint x="531.25" y="1100" />
            </Array>
          </mxGeometry>
        </mxCell>
        <mxCell id="HQgH6Z7FhCviYjo9hJg_-150" value="DATE_UPDATED" style="rounded=0;whiteSpace=wrap;html=1;" vertex="1" parent="1">
          <mxGeometry x="468.75" y="1150" width="120" height="60" as="geometry" />
        </mxCell>
        <mxCell id="HQgH6Z7FhCviYjo9hJg_-151" value="" style="endArrow=classic;html=1;rounded=0;" edge="1" parent="1">
          <mxGeometry width="50" height="50" relative="1" as="geometry">
            <mxPoint x="528.75" y="1100" as="sourcePoint" />
            <mxPoint x="648.3299999999999" y="1150" as="targetPoint" />
            <Array as="points">
              <mxPoint x="648.75" y="1100" />
            </Array>
          </mxGeometry>
        </mxCell>
        <mxCell id="HQgH6Z7FhCviYjo9hJg_-152" value="" style="endArrow=classic;html=1;rounded=0;" edge="1" parent="1">
          <mxGeometry width="50" height="50" relative="1" as="geometry">
            <mxPoint x="638.75" y="1100" as="sourcePoint" />
            <mxPoint x="768.3299999999999" y="1150" as="targetPoint" />
            <Array as="points">
              <mxPoint x="768.75" y="1100" />
            </Array>
          </mxGeometry>
        </mxCell>
        <mxCell id="HQgH6Z7FhCviYjo9hJg_-153" value="JOURNALIST_ID" style="rounded=0;whiteSpace=wrap;html=1;" vertex="1" parent="1">
          <mxGeometry x="588.75" y="1150" width="120" height="60" as="geometry" />
        </mxCell>
        <mxCell id="HQgH6Z7FhCviYjo9hJg_-154" value="&lt;font&gt;PUBLISHER_ID&lt;/font&gt;" style="rounded=0;whiteSpace=wrap;html=1;" vertex="1" parent="1">
          <mxGeometry x="708.75" y="1150" width="120" height="60" as="geometry" />
        </mxCell>
        <mxCell id="HQgH6Z7FhCviYjo9hJg_-155" value="" style="edgeStyle=orthogonalEdgeStyle;rounded=0;orthogonalLoop=1;jettySize=auto;html=1;" edge="1" parent="1" source="HQgH6Z7FhCviYjo9hJg_-156" target="HQgH6Z7FhCviYjo9hJg_-158">
          <mxGeometry relative="1" as="geometry">
            <Array as="points">
              <mxPoint x="0.5" y="685" />
              <mxPoint x="127.5" y="685" />
            </Array>
          </mxGeometry>
        </mxCell>
        <mxCell id="HQgH6Z7FhCviYjo9hJg_-156" value="PUBLISHER_ID" style="rounded=0;whiteSpace=wrap;html=1;" vertex="1" parent="1">
          <mxGeometry x="-60" y="735" width="120" height="60" as="geometry" />
        </mxCell>
        <mxCell id="HQgH6Z7FhCviYjo9hJg_-157" value="&lt;font style=&quot;font-size: 14px;&quot;&gt;Table name: Publisher&lt;/font&gt;" style="text;html=1;align=center;verticalAlign=middle;whiteSpace=wrap;rounded=0;" vertex="1" parent="1">
          <mxGeometry x="60" y="620" width="235" height="30" as="geometry" />
        </mxCell>
        <mxCell id="HQgH6Z7FhCviYjo9hJg_-158" value="PUBLISHER_NAME" style="whiteSpace=wrap;html=1;rounded=0;" vertex="1" parent="1">
          <mxGeometry x="60" y="735" width="120" height="60" as="geometry" />
        </mxCell>
        <mxCell id="HQgH6Z7FhCviYjo9hJg_-159" value="" style="endArrow=classic;html=1;rounded=0;" edge="1" parent="1">
          <mxGeometry width="50" height="50" relative="1" as="geometry">
            <mxPoint x="120" y="685" as="sourcePoint" />
            <mxPoint x="239.57999999999993" y="735" as="targetPoint" />
            <Array as="points">
              <mxPoint x="240" y="685" />
            </Array>
          </mxGeometry>
        </mxCell>
        <mxCell id="HQgH6Z7FhCviYjo9hJg_-160" value="&lt;font&gt;USER_ID&lt;/font&gt;" style="rounded=0;whiteSpace=wrap;html=1;" vertex="1" parent="1">
          <mxGeometry x="300" y="735" width="120" height="60" as="geometry" />
        </mxCell>
        <mxCell id="HQgH6Z7FhCviYjo9hJg_-161" value="&lt;font style=&quot;font-size: 11px;&quot;&gt;PUBLISHER_DESCR&lt;/font&gt;" style="whiteSpace=wrap;html=1;rounded=0;" vertex="1" parent="1">
          <mxGeometry x="180" y="735" width="120" height="60" as="geometry" />
        </mxCell>
        <mxCell id="HQgH6Z7FhCviYjo9hJg_-162" value="" style="endArrow=classic;html=1;rounded=0;" edge="1" parent="1">
          <mxGeometry width="50" height="50" relative="1" as="geometry">
            <mxPoint x="237.5" y="685" as="sourcePoint" />
            <mxPoint x="357.0799999999999" y="735" as="targetPoint" />
            <Array as="points">
              <mxPoint x="357.5" y="685" />
            </Array>
          </mxGeometry>
        </mxCell>
        <mxCell id="HQgH6Z7FhCviYjo9hJg_-163" value="" style="endArrow=classic;html=1;rounded=0;" edge="1" parent="1">
          <mxGeometry width="50" height="50" relative="1" as="geometry">
            <mxPoint x="1096" y="1100" as="sourcePoint" />
            <mxPoint x="1215.58" y="1150" as="targetPoint" />
            <Array as="points">
              <mxPoint x="1216" y="1100" />
            </Array>
          </mxGeometry>
        </mxCell>
        <mxCell id="HQgH6Z7FhCviYjo9hJg_-164" value="MOTIVATION" style="rounded=0;whiteSpace=wrap;html=1;" vertex="1" parent="1">
          <mxGeometry x="1156" y="1150" width="120" height="60" as="geometry" />
        </mxCell>
        <mxCell id="HQgH6Z7FhCviYjo9hJg_-165" value="&lt;font style=&quot;font-size: 14px;&quot;&gt;Table name: RoleApplication&lt;/font&gt;" style="text;html=1;align=center;verticalAlign=middle;whiteSpace=wrap;rounded=0;" vertex="1" parent="1">
          <mxGeometry x="1156" y="1050" width="235" height="30" as="geometry" />
        </mxCell>
        <mxCell id="HQgH6Z7FhCviYjo9hJg_-166" value="" style="edgeStyle=orthogonalEdgeStyle;rounded=0;orthogonalLoop=1;jettySize=auto;html=1;" edge="1" parent="1" source="HQgH6Z7FhCviYjo9hJg_-167" target="HQgH6Z7FhCviYjo9hJg_-168">
          <mxGeometry relative="1" as="geometry">
            <Array as="points">
              <mxPoint x="976" y="1100" />
              <mxPoint x="1096" y="1100" />
            </Array>
          </mxGeometry>
        </mxCell>
        <mxCell id="HQgH6Z7FhCviYjo9hJg_-167" value="&lt;span style=&quot;font-size: 10px;&quot;&gt;APPLIED_ROLE_ID&lt;/span&gt;" style="rounded=0;whiteSpace=wrap;html=1;" vertex="1" parent="1">
          <mxGeometry x="916" y="1150" width="120" height="60" as="geometry" />
        </mxCell>
        <mxCell id="HQgH6Z7FhCviYjo9hJg_-168" value="&lt;font style=&quot;font-size: 11px;&quot;&gt;APPLIED_ROLE&lt;/font&gt;" style="whiteSpace=wrap;html=1;rounded=0;" vertex="1" parent="1">
          <mxGeometry x="1036" y="1150" width="120" height="60" as="geometry" />
        </mxCell>
        <mxCell id="HQgH6Z7FhCviYjo9hJg_-169" value="&lt;font&gt;STATUS&lt;/font&gt;" style="rounded=0;whiteSpace=wrap;html=1;" vertex="1" parent="1">
          <mxGeometry x="1276" y="1150" width="120" height="60" as="geometry" />
        </mxCell>
        <mxCell id="HQgH6Z7FhCviYjo9hJg_-170" value="" style="endArrow=classic;html=1;rounded=0;" edge="1" parent="1">
          <mxGeometry width="50" height="50" relative="1" as="geometry">
            <mxPoint x="1216" y="1100" as="sourcePoint" />
            <mxPoint x="1335.58" y="1150" as="targetPoint" />
            <Array as="points">
              <mxPoint x="1336" y="1100" />
            </Array>
          </mxGeometry>
        </mxCell>
        <mxCell id="HQgH6Z7FhCviYjo9hJg_-171" value="DATE_SUBMITTED" style="rounded=0;whiteSpace=wrap;html=1;" vertex="1" parent="1">
          <mxGeometry x="1393.5" y="1150" width="120" height="60" as="geometry" />
        </mxCell>
        <mxCell id="HQgH6Z7FhCviYjo9hJg_-172" value="" style="endArrow=classic;html=1;rounded=0;" edge="1" parent="1">
          <mxGeometry width="50" height="50" relative="1" as="geometry">
            <mxPoint x="1336" y="1100" as="sourcePoint" />
            <mxPoint x="1455.58" y="1150" as="targetPoint" />
            <Array as="points">
              <mxPoint x="1456" y="1100" />
            </Array>
          </mxGeometry>
        </mxCell>
        <mxCell id="HQgH6Z7FhCviYjo9hJg_-173" value="USER_ID" style="rounded=0;whiteSpace=wrap;html=1;" vertex="1" parent="1">
          <mxGeometry x="1513.5" y="1150" width="120" height="60" as="geometry" />
        </mxCell>
        <mxCell id="HQgH6Z7FhCviYjo9hJg_-174" value="" style="endArrow=classic;html=1;rounded=0;" edge="1" parent="1">
          <mxGeometry width="50" height="50" relative="1" as="geometry">
            <mxPoint x="1447.25" y="1100" as="sourcePoint" />
            <mxPoint x="1576.83" y="1150" as="targetPoint" />
            <Array as="points">
              <mxPoint x="1577.25" y="1100" />
            </Array>
          </mxGeometry>
        </mxCell>
        <mxCell id="HQgH6Z7FhCviYjo9hJg_-175" value="" style="endArrow=classic;html=1;rounded=0;" edge="1" parent="1">
          <mxGeometry width="50" height="50" relative="1" as="geometry">
            <mxPoint x="1180" y="880" as="sourcePoint" />
            <mxPoint x="1299.58" y="930" as="targetPoint" />
            <Array as="points">
              <mxPoint x="1300" y="880" />
            </Array>
          </mxGeometry>
        </mxCell>
        <mxCell id="HQgH6Z7FhCviYjo9hJg_-176" value="EXPIRY_DATE" style="rounded=0;whiteSpace=wrap;html=1;" vertex="1" parent="1">
          <mxGeometry x="1240" y="930" width="120" height="60" as="geometry" />
        </mxCell>
        <mxCell id="HQgH6Z7FhCviYjo9hJg_-177" value="&lt;font style=&quot;font-size: 14px;&quot;&gt;Table name: Reset Token&lt;/font&gt;" style="text;html=1;align=center;verticalAlign=middle;whiteSpace=wrap;rounded=0;" vertex="1" parent="1">
          <mxGeometry x="1180" y="820" width="235" height="30" as="geometry" />
        </mxCell>
        <mxCell id="HQgH6Z7FhCviYjo9hJg_-178" value="" style="edgeStyle=orthogonalEdgeStyle;rounded=0;orthogonalLoop=1;jettySize=auto;html=1;" edge="1" parent="1" source="HQgH6Z7FhCviYjo9hJg_-179" target="HQgH6Z7FhCviYjo9hJg_-180">
          <mxGeometry relative="1" as="geometry">
            <Array as="points">
              <mxPoint x="1060" y="880" />
              <mxPoint x="1180" y="880" />
            </Array>
          </mxGeometry>
        </mxCell>
        <mxCell id="HQgH6Z7FhCviYjo9hJg_-179" value="&lt;font&gt;TOKEN_ID&lt;/font&gt;" style="rounded=0;whiteSpace=wrap;html=1;" vertex="1" parent="1">
          <mxGeometry x="1000" y="930" width="120" height="60" as="geometry" />
        </mxCell>
        <mxCell id="HQgH6Z7FhCviYjo9hJg_-180" value="&lt;font&gt;TOKEN&lt;/font&gt;" style="whiteSpace=wrap;html=1;rounded=0;" vertex="1" parent="1">
          <mxGeometry x="1120" y="930" width="120" height="60" as="geometry" />
        </mxCell>
        <mxCell id="HQgH6Z7FhCviYjo9hJg_-181" value="&lt;font&gt;USED&lt;/font&gt;" style="rounded=0;whiteSpace=wrap;html=1;" vertex="1" parent="1">
          <mxGeometry x="1360" y="930" width="120" height="60" as="geometry" />
        </mxCell>
        <mxCell id="HQgH6Z7FhCviYjo9hJg_-182" value="" style="endArrow=classic;html=1;rounded=0;" edge="1" parent="1">
          <mxGeometry width="50" height="50" relative="1" as="geometry">
            <mxPoint x="1300" y="880" as="sourcePoint" />
            <mxPoint x="1419.58" y="930" as="targetPoint" />
            <Array as="points">
              <mxPoint x="1420" y="880" />
            </Array>
          </mxGeometry>
        </mxCell>
        <mxCell id="HQgH6Z7FhCviYjo9hJg_-183" value="USER_ID" style="rounded=0;whiteSpace=wrap;html=1;" vertex="1" parent="1">
          <mxGeometry x="1477.5" y="930" width="120" height="60" as="geometry" />
        </mxCell>
        <mxCell id="HQgH6Z7FhCviYjo9hJg_-184" value="" style="endArrow=classic;html=1;rounded=0;" edge="1" parent="1">
          <mxGeometry width="50" height="50" relative="1" as="geometry">
            <mxPoint x="1420" y="880" as="sourcePoint" />
            <mxPoint x="1539.58" y="930" as="targetPoint" />
            <Array as="points">
              <mxPoint x="1540" y="880" />
            </Array>
          </mxGeometry>
        </mxCell>
      </root>
    </mxGraphModel>
  </diagram>
</mxfile>
